<svg width="426" height="386" viewBox="0 0 426 386" fill="none" xmlns="http://www.w3.org/2000/svg">
<path d="M168.062 32.7388C182.893 35.3176 197.903 35.6917 204.402 44.4904C210.98 53.4857 209.027 71.3858 202.446 83.5657C195.943 95.942 184.715 102.882 194.008 128.184C203.301 153.487 233.195 197.349 232.031 208.744C230.867 220.139 198.901 199.176 177.571 185.681C156.063 172.273 145.191 166.333 121.967 169.298C98.9198 172.175 63.1863 183.65 42.5643 174.041C21.6863 164.323 15.7426 133.607 27.939 111.604C40.0566 89.4058 70.6493 76.2266 89.7189 62.3683C108.789 48.5101 116.512 33.8856 127.642 29.3471C138.694 24.6122 153.151 29.9634 168.062 32.7388Z" fill="#FFBC42"/>
<path d="M191.049 355.482C161.685 361.828 133.396 337.639 110.58 304.874C87.764 272.108 70.7192 230.813 90.3228 205.414C110.224 180.062 166.657 170.913 209.227 151.825C251.68 133.044 279.973 104.277 311.15 97.7235C342.236 90.9934 376.115 106.3 384.054 133.03C391.992 159.761 373.99 197.915 352.484 223.344C331.068 248.95 306.238 262.007 278.545 287.13C250.969 311.947 220.62 349.005 191.049 355.482Z" fill="#0496FF"/>
</svg>
