<svg width="28" height="28" viewBox="0 0 28 28" fill="none" xmlns="http://www.w3.org/2000/svg">
<circle cx="14" cy="14" r="13.5" stroke="#0496FF"/>
<path d="M12.8681 13.5918L12.868 13.5918V13.6C12.868 13.8556 12.69 13.988 12.552 13.988C12.4189 13.988 12.236 13.8523 12.236 13.6C12.236 13.3444 12.414 13.212 12.552 13.212C12.697 13.212 12.872 13.3504 12.8681 13.5918ZM17.0486 19.612H8.64C8.01373 19.612 7.5 19.1014 7.5 18.464V7.648C7.5 7.01056 8.01373 6.5 8.64 6.5H19.36C19.9863 6.5 20.5 7.01056 20.5 7.648V20.8919C20.1272 20.5632 19.9013 20.3638 19.6774 20.1621C19.2727 19.7972 18.8749 19.4246 17.6284 18.2658L16.3125 17.0424L16.8073 18.7697L17.0486 19.612ZM18.72 15.232L19.1513 15.4849L19.22 15.3677V15.232C19.22 13.8724 18.9166 12.65 18.6172 11.7725C18.467 11.3324 18.3165 10.9752 18.2027 10.7264C18.1457 10.6019 18.0978 10.5043 18.0634 10.4366C18.0463 10.4028 18.0325 10.3764 18.0227 10.358L18.0111 10.3362L18.0076 10.3298L18.0065 10.3277L18.0061 10.327L18.0059 10.3267C18.0059 10.3266 18.0058 10.3265 17.568 10.568L18.0058 10.3265L17.9539 10.2324L17.868 10.168C17.2285 9.68834 16.6016 9.45321 16.1305 9.33825C15.895 9.28079 15.6977 9.25314 15.5556 9.23991C15.4845 9.23328 15.4271 9.23025 15.3853 9.22891C15.3645 9.22824 15.3475 9.228 15.3347 9.22795L15.3187 9.22798L15.313 9.22805L15.3108 9.22808L15.3099 9.2281L15.3095 9.22811C15.3093 9.22811 15.3091 9.22812 15.3152 9.5057L15.3151 9.50576L15.3091 9.22812L15.0888 9.23294L14.9437 9.39875L14.8317 9.52675L14.7679 9.59964C14.2815 9.54814 13.7936 9.54615 13.3126 9.59089L13.2401 9.50391L13.1601 9.40791L13.0144 9.2331L12.7869 9.22812L12.7797 9.55982L12.7797 9.55979C12.7869 9.22812 12.7867 9.22811 12.7865 9.22811L12.7861 9.2281L12.7852 9.22808L12.783 9.22805L12.7773 9.22798L12.7613 9.22795C12.7485 9.228 12.7315 9.22824 12.7107 9.22891C12.6689 9.23025 12.6115 9.23328 12.5404 9.23991C12.3983 9.25314 12.201 9.28079 11.9655 9.33825C11.4944 9.45321 10.8675 9.68834 10.228 10.168L10.1421 10.2324L10.0902 10.3265L10.4129 10.5045L10.4129 10.5045C10.0902 10.3265 10.0901 10.3266 10.0901 10.3267L10.0899 10.327L10.0895 10.3277L10.0884 10.3298L10.0849 10.3362L10.0733 10.358C10.0635 10.3764 10.0497 10.4028 10.0325 10.4366C9.99825 10.5043 9.95032 10.6019 9.89335 10.7264C9.77948 10.9752 9.62898 11.3324 9.47879 11.7725C9.17936 12.65 8.876 13.8724 8.876 15.232V15.3664L8.94335 15.4826L9.376 15.232C8.94335 15.4826 8.94349 15.4829 8.94364 15.4831L8.94394 15.4836L8.94458 15.4847L8.94608 15.4873L8.94988 15.4937L8.96076 15.5113C8.96948 15.5252 8.98118 15.5432 8.99598 15.5647C9.02556 15.6079 9.06766 15.6654 9.12326 15.7327C9.2343 15.867 9.40044 16.0415 9.62958 16.2164C10.0922 16.5696 10.8009 16.9161 11.8002 16.9477L12.046 16.9555L12.2022 16.7656L11.816 16.448L12.2022 16.7655L12.2022 16.7655L12.2023 16.7655L12.2025 16.7652L12.2032 16.7644L12.2058 16.7612L12.2158 16.7491L12.253 16.7036C12.2848 16.6648 12.3296 16.6098 12.3821 16.5453C12.4834 16.4206 12.6138 16.259 12.7329 16.1085C13.565 16.2867 14.4683 16.3084 15.362 16.123C15.4821 16.2749 15.6118 16.434 15.7119 16.5556C15.7635 16.6184 15.8075 16.6716 15.8387 16.7091L15.8752 16.753L15.8851 16.7647L15.8877 16.7678L15.8883 16.7686L15.8885 16.7689L15.8886 16.7689L15.8886 16.769L16.272 16.448L15.8886 16.769L16.0447 16.9554L16.2878 16.9477C17.287 16.9161 17.9973 16.5697 18.4614 16.2172C18.6914 16.0425 18.8585 15.8683 18.9702 15.7343C19.0262 15.6671 19.0686 15.6097 19.0984 15.5667C19.1133 15.5451 19.125 15.5272 19.1338 15.5134L19.1448 15.4958L19.1486 15.4895L19.1501 15.487L19.1508 15.4859L19.1511 15.4853C19.1512 15.4851 19.1513 15.4849 18.72 15.232ZM15.788 13.6C15.788 13.8556 15.61 13.988 15.472 13.988C15.3389 13.988 15.156 13.8523 15.156 13.6C15.156 13.3444 15.334 13.212 15.472 13.212C15.61 13.212 15.788 13.3444 15.788 13.6Z" stroke="#0496FF"/>
</svg>
