<svg width="28" height="28" viewBox="0 0 28 28" fill="none" xmlns="http://www.w3.org/2000/svg">
<circle cx="14" cy="14" r="13.5" stroke="#0496FF"/>
<path d="M21.4443 10.7247L21.4443 10.7248L21.4446 10.7294C21.5185 12.0315 21.5185 15.9685 21.4446 17.2706L21.4444 17.2739C21.3833 18.4932 21.1102 19.4855 20.2981 20.2978L20.2974 20.2985C19.4855 21.1137 18.4941 21.3866 17.2763 21.4443L17.2763 21.4443L17.2716 21.4446C15.9698 21.5185 12.0302 21.5185 10.7284 21.4446L10.7251 21.4444C9.50679 21.3833 8.51744 21.1104 7.70127 20.2972C6.88628 19.4851 6.61333 18.4934 6.55566 17.2752L6.55568 17.2752L6.55542 17.2706C6.48153 15.9685 6.48153 12.028 6.55542 10.7259L6.55543 10.7259L6.55559 10.7226C6.61677 9.50212 6.88675 8.51088 7.70127 7.69927C8.51723 6.88623 9.50981 6.61333 10.7238 6.55567L10.7238 6.55569L10.7284 6.55543C12.0302 6.48152 15.9698 6.48152 17.2716 6.55543V6.55544L17.2749 6.5556C18.4939 6.61674 19.486 6.88989 20.2981 7.70217L20.2987 7.70284C21.1137 8.51492 21.3867 9.50657 21.4443 10.7247ZM18.9014 20.702L18.9031 20.7013C19.7326 20.3686 20.3728 19.729 20.7022 18.9011C20.9481 18.2831 21.0268 17.3092 21.0546 16.4165C21.075 15.7599 21.0682 15.0877 21.0628 14.5528C21.0607 14.3448 21.0588 14.1575 21.0588 14C21.0588 13.8424 21.0607 13.6552 21.0628 13.4473C21.0682 12.9126 21.075 12.2411 21.0546 11.5848C21.0268 10.6923 20.948 9.71891 20.7024 9.09942L20.7017 9.09766C20.3691 8.26808 19.7297 7.62776 18.9019 7.29825L18.9006 7.29771C18.2834 7.05416 17.3106 6.97534 16.4181 6.94709C15.7566 6.92615 15.0801 6.93263 14.5433 6.93777C14.3399 6.93972 14.1566 6.94148 14.0018 6.94148C13.8443 6.94148 13.6571 6.93959 13.4492 6.93748C12.9147 6.93208 12.2432 6.92528 11.5871 6.94574C10.6948 6.97356 9.72159 7.05232 9.10219 7.29804L9.10219 7.29803L9.10042 7.29874C8.27096 7.63144 7.6308 8.27096 7.3014 9.09888L7.3014 9.09888L7.30086 9.10025C7.05738 9.71748 6.97858 10.6905 6.95033 11.5832C6.9294 12.2448 6.93588 12.9215 6.94102 13.4583C6.94297 13.6618 6.94473 13.8451 6.94473 14C6.94473 14.1576 6.94284 14.3448 6.94073 14.5527C6.93533 15.0874 6.92853 15.7589 6.94899 16.4152C6.9768 17.3077 7.05555 18.2811 7.30118 18.9006L7.30189 18.9023C7.63449 19.7319 8.27385 20.3722 9.10164 20.7017L9.10301 20.7023C9.72016 20.9458 10.693 21.0247 11.5855 21.0529C12.247 21.0739 12.9235 21.0674 13.4602 21.0622C13.6636 21.0603 13.8469 21.0585 14.0018 21.0585C14.1593 21.0585 14.3465 21.0604 14.5544 21.0625C15.0889 21.0679 15.7603 21.0747 16.4165 21.0543C17.3087 21.0264 18.282 20.9477 18.9014 20.702ZM10.4005 14C10.4005 12.0054 12.0079 10.3978 14.0018 10.3978C15.9957 10.3978 17.6031 12.0054 17.6031 14C17.6031 15.9946 15.9957 17.6022 14.0018 17.6022C12.0079 17.6022 10.4005 15.9946 10.4005 14ZM10.8354 14C10.8354 15.7474 12.2589 17.167 14.0018 17.167C15.7446 17.167 17.1682 15.7474 17.1682 14C17.1682 12.253 15.7486 10.833 14.0018 10.833C12.2549 10.833 10.8354 12.253 10.8354 14ZM18.7274 9.73C18.7274 9.98471 18.5241 10.1868 18.2708 10.1868C18.0164 10.1868 17.8142 9.98358 17.8142 9.73C17.8142 9.47764 18.0188 9.27318 18.2708 9.27318C18.5229 9.27318 18.7274 9.47764 18.7274 9.73Z" fill="#FFBC42" stroke="#FFBC42"/>
</svg>
