<svg width="28" height="28" viewBox="0 0 28 28" fill="none" xmlns="http://www.w3.org/2000/svg">
<circle cx="14" cy="14" r="13.5" stroke="#0496FF"/>
<path d="M7.96429 19.7143V20.2143H8.46429H10.8357H10.8393H11.3393V19.7143V12.0786V11.5786H10.8393H8.46429H7.96429V12.0786V19.7143ZM19.725 20.2143H20.225V19.7143V15.5286C20.225 14.4887 20.1177 13.4525 19.6247 12.6708C19.0985 11.8364 18.2021 11.3893 16.8786 11.3893C16.165 11.3893 15.5656 11.5975 15.1 11.9056V11.5786H14.6H12.325H11.825V12.0786V19.7143V20.2143H12.325H14.6964H15.1964V19.7143V15.9357C15.1964 15.4467 15.2476 15.0692 15.3833 14.8233C15.4447 14.7121 15.5205 14.6335 15.6195 14.5787C15.7214 14.5224 15.8775 14.475 16.1214 14.475C16.3449 14.475 16.4679 14.5263 16.5396 14.5765C16.6125 14.6276 16.676 14.7079 16.7278 14.8391C16.8427 15.1299 16.8536 15.5354 16.8536 16V19.7143V20.2143H17.3536H19.725ZM7.13929 6.5H20.8571C21.2055 6.5 21.5 6.78994 21.5 7.15357V20.8464C21.5 21.2101 21.2055 21.5 20.8571 21.5H7.13929C6.79292 21.5 6.5 21.2121 6.5 20.8464V7.15357C6.5 6.7879 6.79292 6.5 7.13929 6.5ZM7.775 9.66071C7.775 10.6932 8.6123 11.5357 9.65 11.5357C10.6869 11.5357 11.525 10.6976 11.525 9.66071C11.525 8.62743 10.6833 7.78571 9.65 7.78571C8.6123 7.78571 7.775 8.62828 7.775 9.66071Z" stroke="#FFBC42"/>
</svg>
