<svg width="79" height="69" viewBox="0 0 79 69" fill="none" xmlns="http://www.w3.org/2000/svg">
<path d="M2 0.5H1.13841L1.56588 1.24807L39.0659 66.8731L39.5 67.6328L39.9341 66.8731L77.4341 1.24807L77.8616 0.5H77H2Z" fill="#FFBC42" stroke="#FFBC42"/>
<path d="M37.2941 49.8949L14.353 11.3718L37.2941 22.2683V49.8949Z" fill="#0496FF" stroke="#0496FF"/>
<path d="M41.7059 22.3783L65.8603 9.28046L41.7059 49.8949V22.3783Z" fill="#0496FF"/>
<path d="M44.9044 15.5542H33.4338L39.5 18.416L44.9044 15.5542Z" fill="#0496FF"/>
<path d="M53.1764 11.1516L63.6544 5.53821H12.2573L24.1691 11.1516H53.1764Z" fill="#0496FF"/>
<path d="M41.7059 22.3783L65.8603 9.28046L41.7059 49.8949V22.3783Z" stroke="#0496FF"/>
<path d="M44.9044 15.5542H33.4338L39.5 18.416L44.9044 15.5542Z" stroke="#0496FF"/>
<path d="M53.1764 11.1516L63.6544 5.53821H12.2573L24.1691 11.1516H53.1764Z" stroke="#0496FF"/>
</svg>
