<svg width="28" height="28" viewBox="0 0 28 28" fill="none" xmlns="http://www.w3.org/2000/svg">
<g clip-path="url(#clip0_79_408)">
<path d="M14.35 6.01333C15.2233 6 16.09 6.00667 16.9567 6C17.01 7.02 17.3767 8.06 18.1233 8.78C18.87 9.52 19.9233 9.86 20.95 9.97333V12.66C19.99 12.6267 19.0233 12.4267 18.15 12.0133C17.77 11.84 17.4167 11.62 17.07 11.3933C17.0633 13.34 17.0767 15.2867 17.0567 17.2267C17.0033 18.16 16.6967 19.0867 16.1567 19.8533C15.2833 21.1333 13.77 21.9667 12.2167 21.9933C11.2633 22.0467 10.31 21.7867 9.49667 21.3067C8.15 20.5133 7.20333 19.06 7.06333 17.5C7.05 17.1667 7.04333 16.8333 7.05667 16.5067C7.17667 15.24 7.80333 14.0267 8.77667 13.2C9.88333 12.24 11.43 11.78 12.8767 12.0533C12.89 13.04 12.85 14.0267 12.85 15.0133C12.19 14.8 11.4167 14.86 10.8367 15.26C10.4167 15.5333 10.0967 15.9533 9.93 16.4267C9.79 16.7667 9.83 17.14 9.83667 17.5C9.99667 18.5933 11.05 19.5133 12.17 19.4133C12.9167 19.4067 13.63 18.9733 14.0167 18.34C14.1433 18.12 14.2833 17.8933 14.29 17.6333C14.3567 16.44 14.33 15.2533 14.3367 14.06C14.3433 11.3733 14.33 8.69333 14.35 6.01333Z" fill="#0496FF"/>
</g>
<circle cx="14" cy="14" r="13.5" stroke="#0496FF"/>
<defs>
<clipPath id="clip0_79_408">
<rect width="16" height="16" fill="white" transform="translate(6 6)"/>
</clipPath>
</defs>
</svg>
