<svg width="28" height="28" viewBox="0 0 28 28" fill="none" xmlns="http://www.w3.org/2000/svg">
<circle cx="14" cy="14" r="13.5" stroke="#0496FF"/>
<path d="M23.099 9.3194L23.0991 9.31969C23.2928 10.0444 23.3961 11.202 23.4484 12.2142C23.4742 12.7129 23.4871 13.1638 23.4936 13.4901C23.4968 13.6532 23.4984 13.7848 23.4992 13.8754L23.4999 13.9792L23.5 14.0058L23.5 14.0123V14.0138L23.5 14.0141L23.5 14.0145V14.016L23.5 14.0225L23.4999 14.049L23.4992 14.1529C23.4984 14.2435 23.4968 14.3751 23.4936 14.5382C23.4871 14.8645 23.4742 15.3154 23.4484 15.8141C23.3961 16.8263 23.2928 17.9839 23.0991 18.7086L23.099 18.7089C22.9173 19.3901 22.3806 19.9118 21.6845 20.0983L21.6842 20.0983C21.3463 20.1891 20.708 20.2655 19.8985 20.3247C19.1031 20.3828 18.1831 20.4218 17.3072 20.4479C16.432 20.4739 15.6049 20.487 14.9962 20.4935C14.692 20.4967 14.4426 20.4984 14.2694 20.4992L14.0695 20.4999L14.0174 20.5L14.0043 20.5L14.001 20.5H14.0002H14L14 21L14 20.5H13.9998H13.999L13.9957 20.5L13.9825 20.5L13.9305 20.4999L13.7306 20.4992C13.5574 20.4984 13.308 20.4967 13.0038 20.4935C12.3951 20.487 11.568 20.4739 10.6928 20.4479C9.81691 20.4218 8.89695 20.3828 8.10151 20.3247C7.29198 20.2655 6.65365 20.1891 6.31578 20.0983L6.31548 20.0983C5.61937 19.9118 5.08275 19.3901 4.90102 18.7089L4.90095 18.7086C4.70716 17.9839 4.6039 16.8263 4.55157 15.8141C4.5258 15.3154 4.51289 14.8645 4.50643 14.5382C4.50321 14.3751 4.5016 14.2435 4.5008 14.1529L4.5001 14.049L4.50001 14.0225L4.5 14.016L4.5 14.0145L4.5 14.0142V14.0141L4.5 14.0138L4.5 14.0123L4.50001 14.0058L4.5001 13.9792L4.5008 13.8754C4.5016 13.7848 4.50321 13.6532 4.50643 13.4901C4.51289 13.1638 4.5258 12.7129 4.55157 12.2142C4.6039 11.202 4.70716 10.0444 4.90095 9.31969L4.90102 9.3194C5.08504 8.6296 5.62813 8.08585 6.3155 7.90173L6.31578 7.90166C6.65365 7.81095 7.29198 7.7345 8.10151 7.67533C8.89695 7.61719 9.81691 7.5782 10.6928 7.55212C11.568 7.52607 12.3951 7.51304 13.0038 7.50651C13.308 7.50325 13.5574 7.50163 13.7306 7.50081L13.9305 7.5001L13.9825 7.50001L13.9957 7.5L13.999 7.5L13.9998 7.5H14L14 7L14 7.5H14.0002L14.001 7.5L14.0043 7.5L14.0174 7.50001L14.0695 7.5001L14.2694 7.50081C14.4426 7.50163 14.692 7.50325 14.9962 7.50651C15.6049 7.51304 16.432 7.52607 17.3072 7.55212C18.1831 7.5782 19.1031 7.61719 19.8985 7.67533C20.708 7.7345 21.3464 7.81095 21.6842 7.90166L21.6845 7.90174C22.3719 8.08582 22.915 8.62959 23.099 9.3194ZM11.4545 16.9747V17.8325L12.2009 17.4097L17.4282 14.4493L18.1964 14.0142L17.4282 13.5792L12.2009 10.6186L11.4545 10.1958V11.0536V16.9747Z" stroke="#0496FF"/>
</svg>
